<?xml version="1.0" encoding="UTF-8"?>
<svg id="Layer_2" data-name="Layer 2" xmlns="http://www.w3.org/2000/svg" viewBox="0 0 187.97 150.04">
  <defs>
    <style>
      .cls-1 {
        fill: #fff;
      }
    </style>
  </defs>
  <g id="Layer_1-2" data-name="Layer 1">
    <g>
      <path class="cls-1" d="M32.79,37.86l82.36,43.84,8.63-9.34L35.4,21.76c-1.15-.51-1.44-1.28-1.64-2.45-.14-.84.86-16.01,1.02-16.96.2-1.14.36-2.02,1.64-2.35l48.8.92,54.56,30.93,1.01-15-7.41-1.1L111.79,1.86h40.5c.93,0,2.41.46,3.49.46l1.05,2.03-6.04,50.52-2.95-.55L83.84,16.31l-28.04-1.45,1.65,2.84,86.34,49.68c-3.36,3.79-24.21,29.72-26.71,30.32-4.65,1.12-74.14-40.8-84.3-45.35v-14.5Z"/>
      <path class="cls-1" d="M89.79,112.86l-58.01-31.48c-2.38-2.6,1.29-11.52.02-15.51l58.01,32.49c2.12,2.29-1.21,10.75-.02,14.5Z"/>
    </g>
    <g>
      <path class="cls-1" d="M1.04,149.9c-.48,0-.77,0-1.04.02.04-.25.06-.55.06-1.02v-3.7c0-.49-.01-.79-.06-1.13h1.53c-.05.36-.06.56-.06,1.11v3.47h1.69c.6,0,.83,0,1.16-.05v1.34c-.26-.04-.6-.05-1.16-.05H1.04Z"/>
      <path class="cls-1" d="M11.64,149.95c-.3-.04-.55-.05-1.16-.05h-2.21c-.53,0-.73,0-1.03.02.04-.28.06-.54.06-1.02v-3.82c0-.43-.01-.68-.06-1.02.29.01.48.02,1.03.02h2.23c.48,0,.71-.01,1.04-.05v1.31c-.32-.04-.57-.05-1.04-.05h-1.82v1.03h1.51c.46,0,.63,0,1.05-.05v1.3c-.33-.04-.57-.05-1.05-.05h-1.51v1.18h1.81c.53,0,.84-.01,1.14-.05v1.31Z"/>
      <path class="cls-1" d="M18.2,147.77c-.36,0-.48,0-.69.04v-1.24c.26.03.43.04.92.04h.56c.36,0,.62,0,.92-.04-.04.27-.05.5-.05.95v.78c0,.5,0,.72.05,1.04-.39.25-.57.34-.89.44-.46.15-.97.24-1.48.24-.89,0-1.58-.25-2.08-.75-.53-.53-.83-1.37-.83-2.33,0-1.84,1.11-3.01,2.88-3.01.88,0,1.54.27,2,.83.19.22.3.43.41.76l-1.43.33c-.08-.25-.16-.38-.31-.5-.18-.15-.41-.22-.71-.22-.9,0-1.39.65-1.39,1.83,0,.65.15,1.16.43,1.46.22.25.57.38,1.01.38.37,0,.67-.08,1.02-.25v-.8h-.34Z"/>
      <path class="cls-1" d="M27.11,149.9c-.06-.34-.1-.52-.17-.76l-.19-.6h-2l-.19.6c-.09.28-.14.5-.17.76h-1.64c.11-.21.17-.38.34-.85l1.51-4.22c.13-.34.19-.55.22-.76h1.83c.05.2.1.39.24.76l1.52,4.22c.13.37.25.66.34.85h-1.64ZM25.75,145.27l-.65,2.1h1.32l-.67-2.1Z"/>
      <path class="cls-1" d="M35.42,146.1c-.13-.64-.5-.95-1.11-.95-.85,0-1.35.67-1.35,1.83s.52,1.83,1.39,1.83c.39,0,.71-.16.92-.44.12-.17.17-.31.21-.6l1.46.22c-.13.6-.29.94-.58,1.28-.43.5-1.11.76-1.96.76s-1.58-.27-2.07-.77c-.52-.53-.81-1.34-.81-2.28s.29-1.76.85-2.3c.48-.47,1.19-.73,2.01-.73.9,0,1.61.31,2.07.92.22.29.34.55.43.96l-1.44.28Z"/>
      <path class="cls-1" d="M43.25,148.86c0,.36.01.67.06,1.04h-1.53c.04-.32.06-.64.06-1.04v-1.3l-1.61-2.65c-.13-.22-.28-.45-.56-.85h1.77c.08.25.15.43.33.74l.78,1.42.78-1.41c.17-.32.27-.54.32-.74h1.77c-.2.29-.47.69-.56.85l-1.6,2.65v1.3Z"/>
      <path class="cls-1" d="M54.07,149.9c-.63,0-.79,0-1.05.03.03-.34.06-.55.15-.83.18-.58.52-1.11,1.01-1.57.27-.25.53-.45,1.25-.93.6-.41.75-.59.75-.91s-.3-.56-.75-.56c-.34,0-.57.11-.73.35-.1.15-.14.29-.17.59l-1.47-.15c.1-.61.23-.92.51-1.25.4-.47,1.04-.72,1.86-.72.95,0,1.67.32,2.02.88.15.25.23.52.23.82,0,.51-.21.95-.64,1.3-.23.2-.3.25-1.02.75-.61.42-.87.67-1.03.97h1.63c.53,0,.85-.01,1.12-.05v1.32c-.41-.04-.7-.05-1.2-.05h-2.46Z"/>
      <path class="cls-1" d="M62.28,148.12c.04.23.08.33.2.45.19.2.47.3.81.3.55,0,.89-.27.89-.7,0-.29-.14-.51-.38-.6-.16-.06-.38-.09-.65-.09s-.59.01-.86.04v-1.21c.24.03.47.04.74.04.67,0,.99-.22.99-.67,0-.38-.27-.6-.73-.6-.5,0-.75.2-.85.64l-1.51-.22c.13-.43.25-.64.47-.89.43-.46,1.07-.7,1.93-.7.76,0,1.39.21,1.79.59.26.26.39.6.39,1,0,.74-.4,1.2-1.2,1.39.43.06.66.16.9.37.29.27.46.63.46,1.04,0,.36-.1.69-.28.93-.15.21-.4.41-.66.53-.36.17-.93.27-1.46.27-.63,0-1.26-.15-1.63-.39-.32-.21-.57-.52-.72-.9-.04-.1-.07-.19-.12-.37l1.48-.26Z"/>
      <path class="cls-1" d="M69.41,144.02c.25.04.43.05.84.05h.89c.5,0,.59,0,.87-.03-.04.37-.05.67-.05,1.13v3.67c0,.42.01.71.06,1.06h-1.53c.04-.32.06-.65.06-1.06v-3.57h-.28c-.27,0-.55.01-.85.05v-1.3Z"/>
      <path class="cls-1" d="M77.28,149.37c-.23-.23-.41-.5-.51-.78-.18-.5-.27-1.04-.27-1.6,0-.74.18-1.5.44-1.94.43-.71,1.16-1.11,2.04-1.11.68,0,1.27.23,1.7.65.23.23.41.5.51.78.18.5.27,1.04.27,1.61,0,.74-.18,1.51-.44,1.95-.42.7-1.16,1.09-2.04,1.09-.69,0-1.27-.22-1.69-.65ZM77.93,146.93c0,1.25.36,1.9,1.05,1.9s1.04-.63,1.04-1.88-.36-1.83-1.04-1.83-1.04.67-1.04,1.81Z"/>
      <path class="cls-1" d="M89.35,149.9c.04-.31.06-.62.06-1.04v-3.79c0-.38-.01-.69-.06-1.02.33.01.58.02,1.03.02h1.53c1.39,0,2.15.67,2.15,1.88s-.8,1.99-2.16,1.99h-1.11v.9c0,.41.02.76.06,1.06h-1.51ZM91.84,146.75c.49,0,.78-.27.78-.76s-.27-.74-.78-.74h-1.04v1.49h1.04Z"/>
      <path class="cls-1" d="M100.68,149.9c-.04-.22-.13-.51-.34-1.09-.22-.61-.31-.77-.48-.92-.15-.13-.32-.19-.54-.19h-.71v1.15c0,.48.01.74.06,1.06h-1.51c.04-.32.06-.53.06-1.05v-3.77c0-.43-.01-.69-.06-1.03.31.01.57.02,1.04.02h1.82c1.13,0,1.79.59,1.79,1.6,0,.5-.14.89-.41,1.15-.18.16-.32.24-.67.35.36.11.52.27.74.77.11.22.2.46.52,1.22.08.2.16.37.34.74h-1.64ZM99.68,146.49c.41,0,.67-.25.67-.65s-.22-.6-.66-.6h-1.1v1.25h1.09Z"/>
      <path class="cls-1" d="M110.82,146.95c0,1.85-1.13,3.08-2.83,3.08s-2.82-1.2-2.82-3.05,1.11-3.03,2.83-3.03,2.82,1.18,2.82,3.01ZM109.36,146.97c0-1.13-.52-1.82-1.37-1.82s-1.38.69-1.38,1.82.53,1.85,1.38,1.85,1.37-.7,1.37-1.85Z"/>
      <path class="cls-1" d="M114.03,145.08c0-.48-.01-.71-.06-1.03.28.01.46.02,1.04.02h1.46c.86,0,1.55.24,2.02.69.51.5.77,1.24.77,2.17s-.28,1.73-.81,2.26c-.47.46-1.13.7-1.97.7h-1.48c-.54,0-.74,0-1.03.02.04-.31.06-.54.06-1.02v-3.82ZM116.35,148.67c.46,0,.78-.12,1.03-.37.29-.29.44-.76.44-1.34s-.13-1.03-.41-1.3c-.25-.25-.58-.36-1.08-.36h-.92v3.38h.94Z"/>
      <path class="cls-1" d="M127.77,144.07c-.04.3-.06.55-.06,1.06v2.41c0,1.6-.96,2.5-2.65,2.5-.87,0-1.58-.25-2-.69-.41-.43-.62-1.04-.62-1.83v-2.4c0-.48-.01-.79-.06-1.06h1.51c-.04.26-.06.54-.06,1.06v2.41c0,.88.4,1.3,1.22,1.3s1.24-.42,1.24-1.3v-2.41c0-.53-.01-.74-.06-1.06h1.51Z"/>
      <path class="cls-1" d="M134.81,146.1c-.13-.64-.5-.95-1.11-.95-.85,0-1.35.67-1.35,1.83s.52,1.83,1.39,1.83c.39,0,.71-.16.92-.44.12-.17.17-.31.21-.6l1.46.22c-.13.6-.29.94-.58,1.28-.43.5-1.11.76-1.96.76s-1.58-.27-2.07-.77c-.52-.53-.81-1.34-.81-2.28s.29-1.76.85-2.3c.48-.47,1.19-.73,2.01-.73.9,0,1.61.31,2.07.92.22.29.34.55.43.96l-1.44.28Z"/>
      <path class="cls-1" d="M142.42,148.84c0,.42.01.73.06,1.06h-1.55c.04-.33.06-.62.06-1.06v-3.53h-.83c-.44,0-.56,0-1.06.05v-1.34c.23.03.62.05,1.04.05h3.07c.49,0,.77-.01,1.09-.05v1.34c-.31-.04-.59-.05-1.09-.05h-.79v3.53Z"/>
      <path class="cls-1" d="M148.83,144.07c-.04.29-.06.53-.06,1.04v3.75c0,.48.01.74.06,1.04h-1.54c.04-.27.06-.57.06-1.04v-3.75c0-.53-.01-.73-.06-1.04h1.54Z"/>
      <path class="cls-1" d="M157.63,146.95c0,1.85-1.13,3.08-2.83,3.08s-2.82-1.2-2.82-3.05,1.11-3.03,2.83-3.03,2.82,1.18,2.82,3.01ZM156.17,146.97c0-1.13-.52-1.82-1.37-1.82s-1.38.69-1.38,1.82.53,1.85,1.38,1.85,1.37-.7,1.37-1.85Z"/>
      <path class="cls-1" d="M164.12,146.93c.2.3.34.53.5.83-.03-.32-.04-.64-.04-1.04v-1.6c0-.46-.01-.74-.06-1.06h1.49c-.04.32-.06.61-.06,1.06v3.72c0,.43.02.75.06,1.04h-1.53c-.13-.27-.29-.53-.53-.89l-1.3-1.95c-.19-.28-.31-.49-.5-.86.04.32.05.7.05,1.04v1.57c0,.48.01.79.06,1.09h-1.49c.04-.27.06-.58.06-1.1v-3.68c0-.41-.01-.72-.06-1.04h1.52c.07.19.22.47.5.88l1.33,1.99Z"/>
      <path class="cls-1" d="M177.86,146.1c-.13-.64-.5-.95-1.11-.95-.85,0-1.35.67-1.35,1.83s.52,1.83,1.39,1.83c.39,0,.71-.16.92-.44.12-.17.17-.31.21-.6l1.46.22c-.13.6-.29.94-.58,1.28-.43.5-1.11.76-1.96.76s-1.58-.27-2.07-.77c-.52-.53-.81-1.34-.81-2.28s.29-1.76.85-2.3c.48-.47,1.19-.73,2.01-.73.9,0,1.61.31,2.07.92.22.29.34.55.43.96l-1.44.28Z"/>
      <path class="cls-1" d="M187.97,146.95c0,1.85-1.13,3.08-2.83,3.08s-2.82-1.2-2.82-3.05,1.11-3.03,2.83-3.03,2.82,1.18,2.82,3.01ZM186.51,146.97c0-1.13-.52-1.82-1.37-1.82s-1.38.69-1.38,1.82.53,1.85,1.38,1.85,1.37-.7,1.37-1.85Z"/>
    </g>
  </g>
</svg>