<?xml version="1.0" encoding="UTF-8"?>
<svg id="Layer_2" data-name="Layer 2" xmlns="http://www.w3.org/2000/svg" viewBox="0 0 731.53 544.85">
  <defs>
    <style>
      .cls-1 {
        fill: #fff;
      }
    </style>
  </defs>
  <g id="Layer_1" data-name="Layer 1">
    <path class="cls-1" d="M69.93,313.64L182.28,32.9l61.34.2,110.03,276.54v-99.88l25.95,17.5c39.81,20.58,119.41-.66,160.38-15.48,27.96-10.12,74.22-30.81,92.37-54.47,1.38-1.8,6.39-8.51,7-9.99.19-.46.26-1.64-.48-1.48l-11.49,8.98v-72.91c2.32-.05,4.05,2.46,5.51,3.98,12.5,13.01,21.05,25.93,22.45,44.47,8.25,109.53-163.9,174.4-251.19,184.31l-108.77-.99-27.79-63.81-113.07-.21-27.13,63.97h-57.44ZM249.75,197.78l-37.46-99.89-38.46,99.89h75.92ZM0,367.58l43.05,176.69c12.11-.88,26.61,1.51,38.42.15,1.43-.16,2.63-.1,3.36-1.63l31.54-121.29,32.93,122.93,40.54-.53,43.91-176.33h-37.96l-27.98,120.85-32.44-119.87c-.74-1.09-1.86-.9-2.96-1.04-3.74-.46-34.12-.53-35.58.5l-31.41,120.43-28.97-120.87H0ZM503.49,210.76V28.97l-61.94,36.46v158.31l-16.98,1V51.45L506.9,0l100.33,58.61-.34,109.2c-32.03,19.45-67.16,33.34-103.39,42.96ZM546.45,101.89v-39.45l-20.98-12.49v40.45c1.9,1.76,20.18,12.38,20.98,11.49ZM583.41,124.86v-40.45l-19.98-11.49v40.45l19.98,11.49ZM542.45,176.8v-43.45l-16.98-9.49v41.45l16.98,11.49ZM254.74,369.08c.88-1.43,1.99-1.38,3.45-1.55,17.5-2.05,49.59-.76,68.03,0,25.01,1.04,46.4,5.27,58.27,29.63,13.68,28.07,6.41,68.18-25.78,79.37l-.08,1.35,36.48,64.51-1.01,1.98h-40.46l-33.97-63.93h-25.97v63.93h-37.46l-1.5-1.5v-173.8ZM293.7,446.49h40.46c1.47,0,9.92-4.08,11.52-5.46,9.9-8.56,9.97-24.74,1.5-34.52-3.97-4.58-12.19-6.43-18.03-6.94-10.96-.97-24.55-.08-35.45.98v45.95ZM407.59,544.37l63.02-175.21c.72-1.54,1.92-1.47,3.35-1.64,13.3-1.53,29.44,1.31,43.07,0l64.38,176.86h-40.96l-12.95-38.5-66.09.13-13.37,38.36h-40.46ZM515.48,472.46l-19.99-61.93-23.97,61.93h43.96ZM635.36,481.44v62.93h-36.46l-1.5-1.5v-173.8l1.5-1.5h81.92c1.99,0,18.81,5.28,21.48,6.49,48.46,22.01,32.53,107.38-17.48,107.38h-49.45ZM635.36,449.48h34.47c.69,0,11.06-3.2,12.19-3.79,14.01-7.33,13.5-35.58-1.41-41.95-1.47-.63-10.74-3.21-11.78-3.21h-33.47v48.94ZM401.6,34.47l-1.5-1.5h-46.45v144.83c11.12-15.48,19.18-31.83,33.95-44.46,2.76-2.36,13.61-8.68,14-10.98V34.47ZM607.39,245.72c-23.51,15.15-47.23,31.78-72.57,43.81-20.48,9.72-42.09,16.15-63.5,23.42-1.06.36-3.02.22-2.79,1.69h138.86v-68.92ZM392.63,142.37c-11.28,13.15-24.11,29.94-25.04,47.87-.96,18.47,5.68,23.61,22.26,28.77,3.11.97,9.64,3.63,11.75,1.24v-86.4c-3.17,1.03-6.59,5.75-8.97,8.52ZM464.53,158.32v59.93c.77.95.83,1.16,2.06,1.12,2.86-.1,10.29-2.68,12.92-4.11v-65.42c-2.94,1-14.98,5.78-14.98,8.49ZM464.53,92.4v38.45c5.27-.81,9.83-5.35,14.98-6.99v-38.95l-14.98,7.49Z"/>
  </g>
</svg>