<?xml version="1.0" encoding="UTF-8"?>
<svg id="Layer_2" data-name="Layer 2" xmlns="http://www.w3.org/2000/svg" viewBox="0 0 254.13 7.28">
  <defs>
    <style>
      .cls-1 {
        fill: #fff;
      }
    </style>
  </defs>
  <g id="Layer_1-2" data-name="Layer 1">
    <path class="cls-1" d="M0,.14h1.94v5.3h3.39v1.7H0V.14ZM10.07.14h5.63v1.64h-3.71v1.07h3.36v1.53h-3.36v1.11h3.76v1.65h-5.68V.14ZM20.37,3.66v-.02c0-2.04,1.6-3.64,3.76-3.64,1.24,0,2.09.37,2.84,1.01l-1.14,1.38c-.51-.43-.98-.66-1.69-.66-1,0-1.79.84-1.79,1.91v.02c0,1.14.79,1.95,1.9,1.95.48,0,.84-.1,1.12-.29v-.85h-1.37v-1.42h3.21v3.14c-.75.63-1.75,1.09-3.04,1.09-2.19,0-3.8-1.49-3.8-3.62ZM34.61.09h1.87l2.98,7.05h-2.08l-.5-1.26h-2.71l-.5,1.26h-2.03L34.61.09ZM36.31,4.37l-.78-1.98-.79,1.98h1.57ZM43.36,3.66v-.02c0-2.04,1.56-3.64,3.68-3.64,1.42,0,2.36.6,2.97,1.45l-1.46,1.13c-.4-.49-.85-.82-1.53-.82-.98,0-1.67.84-1.67,1.86v.02c0,1.05.69,1.87,1.67,1.87.73,0,1.15-.34,1.58-.85l1.46,1.04c-.67.91-1.55,1.58-3.09,1.58-2,0-3.61-1.53-3.61-3.62ZM56.63,4.52L53.96.14h2.21l1.44,2.55,1.45-2.55h2.17l-2.66,4.35v2.65h-1.94v-2.62ZM72.34,5.68l2.62-2c.65-.51.91-.83.91-1.26s-.31-.72-.79-.72-.84.28-1.39.91l-1.31-1.09c.75-.96,1.5-1.5,2.85-1.5,1.52,0,2.58.91,2.58,2.23v.02c0,1.12-.58,1.7-1.62,2.45l-1.2.84h2.89v1.58h-5.54v-1.46ZM82.33,6.04l1.23-1.22c.51.51,1.02.8,1.67.8.56,0,.89-.28.89-.71v-.02c0-.45-.39-.72-1.14-.72h-.82l-.27-1.01,1.6-1.45h-2.67V.14h5.05v1.38l-1.67,1.44c1,.22,1.81.77,1.81,1.97v.02c0,1.41-1.15,2.33-2.7,2.33-1.36,0-2.29-.48-2.98-1.24ZM93.89,1.89l-1.18.28-.37-1.5,2.05-.58h1.41v7.05h-1.91V1.89ZM100.79,3.66v-.02c0-1.98,1.26-3.64,3.25-3.64s3.23,1.64,3.23,3.62v.02c0,1.98-1.25,3.64-3.25,3.64s-3.23-1.64-3.23-3.62ZM105.32,3.66v-.02c0-1.12-.53-1.93-1.3-1.93s-1.28.79-1.28,1.91v.02c0,1.13.53,1.92,1.3,1.92s1.28-.79,1.28-1.9ZM119.1.14h3.01c1.76,0,2.9.9,2.9,2.45v.02c0,1.66-1.27,2.53-3,2.53h-.97v2h-1.94V.14ZM121.97,3.62c.68,0,1.11-.36,1.11-.92v-.02c0-.6-.43-.91-1.12-.91h-.92v1.85h.93ZM129.73.14h3.31c1.08,0,1.81.28,2.28.75.41.41.62.96.62,1.63v.02c0,1.08-.56,1.79-1.44,2.16l1.67,2.44h-2.23l-1.41-2.12h-.86v2.12h-1.94V.14ZM132.96,3.5c.65,0,1.04-.32,1.04-.83v-.02c0-.56-.41-.84-1.05-.84h-1.28v1.69h1.29ZM140.59,3.66v-.02c0-2.01,1.62-3.64,3.78-3.64s3.76,1.62,3.76,3.62v.02c0,2.01-1.62,3.64-3.78,3.64s-3.76-1.62-3.76-3.62ZM146.14,3.66v-.02c0-1.02-.72-1.89-1.79-1.89s-1.78.86-1.78,1.87v.02c0,1,.73,1.89,1.8,1.89s1.77-.86,1.77-1.87ZM153.03.14h2.71c2.49,0,3.94,1.43,3.94,3.46v.02c0,2.03-1.47,3.52-3.98,3.52h-2.67V.14ZM154.97,1.85v3.57h.79c1.17,0,1.94-.64,1.94-1.77v-.02c0-1.13-.77-1.78-1.94-1.78h-.79ZM164.51,4.07V.14h1.96v3.89c0,1.01.5,1.49,1.29,1.49s1.3-.45,1.3-1.44V.14h1.96v3.88c0,2.25-1.29,3.25-3.28,3.25s-3.23-1-3.23-3.2ZM175.84,3.66v-.02c0-2.04,1.56-3.64,3.68-3.64,1.42,0,2.36.6,2.97,1.45l-1.46,1.13c-.4-.49-.85-.82-1.53-.82-.98,0-1.67.84-1.67,1.86v.02c0,1.05.69,1.87,1.67,1.87.73,0,1.15-.34,1.58-.85l1.46,1.04c-.67.91-1.55,1.58-3.09,1.58-2,0-3.61-1.53-3.61-3.62ZM188.99,1.84h-2.09V.14h6.13v1.7h-2.1v5.3h-1.94V1.84ZM197.83.14h1.94v7h-1.94V.14ZM204.72,3.66v-.02c0-2.01,1.62-3.64,3.78-3.64s3.76,1.62,3.76,3.62v.02c0,2.01-1.62,3.64-3.78,3.64s-3.76-1.62-3.76-3.62ZM210.27,3.66v-.02c0-1.02-.72-1.89-1.79-1.89s-1.78.86-1.78,1.87v.02c0,1,.73,1.89,1.8,1.89s1.77-.86,1.77-1.87ZM217.16.14h1.81l2.88,3.7V.14h1.92v7h-1.69l-3-3.84v3.84h-1.92V.14ZM235.58,3.66v-.02c0-2.04,1.56-3.64,3.68-3.64,1.42,0,2.36.6,2.97,1.45l-1.46,1.13c-.4-.49-.85-.82-1.53-.82-.98,0-1.67.84-1.67,1.86v.02c0,1.05.69,1.87,1.67,1.87.73,0,1.15-.34,1.58-.85l1.46,1.04c-.67.91-1.55,1.58-3.09,1.58-2,0-3.61-1.53-3.61-3.62ZM246.59,3.66v-.02c0-2.01,1.62-3.64,3.78-3.64s3.76,1.62,3.76,3.62v.02c0,2.01-1.62,3.64-3.78,3.64s-3.76-1.62-3.76-3.62ZM252.14,3.66v-.02c0-1.02-.72-1.89-1.79-1.89s-1.78.86-1.78,1.87v.02c0,1,.73,1.89,1.8,1.89s1.77-.86,1.77-1.87Z"/>
  </g>
</svg>